# Wavefront Obj file
# 
# verts: 97 uv-s: 189
mtllib Knife.mtl

g Knife

v -3.022500 59.171799 94.297699
v 3.022400 59.171799 94.297699
v 3.022500 65.849403 72.286903
v -3.022500 65.849403 72.286903
v -3.022500 56.966999 112.006104
v 3.022400 56.966999 112.006104
v -3.022500 56.814999 115.554802
v 0.000000 56.425800 160.655823
v 3.022400 56.814999 115.554802
v -3.022500 35.277302 -31.785999
v -3.022500 55.058601 -31.785999
v -3.022500 55.088902 -47.074699
v -3.022500 35.358700 -47.074699
v 0.000000 35.939701 72.286903
v 0.000000 36.549702 110.458801
v -3.022500 54.691101 96.205597
v -3.022500 54.852402 72.286903
v 0.000000 37.245201 125.472801
v 0.000000 41.640800 141.707520
v -3.022500 65.894096 -30.647100
v -3.022500 55.056400 -30.647100
v -3.022500 65.894600 -31.785999
v -3.022500 65.901299 -47.074699
v 3.022500 65.894096 -30.647100
v 0.000000 35.259399 -31.785999
v 0.000000 35.344200 -47.074699
v 0.000000 36.487202 -30.647100
v 3.022500 65.901299 -47.074699
v 0.000000 66.080002 -47.074699
v 3.022500 65.894600 -31.785999
v 3.022500 55.088902 -47.074699
v 3.022500 55.058601 -31.785999
v 3.022500 35.277302 -31.785999
v 3.022500 35.358700 -47.074699
v 3.022500 54.852402 72.286903
v 3.022400 54.691101 96.205597
v 3.022500 55.056400 -30.647100
v -8.787400 64.862602 -116.180099
v -8.787400 58.839298 -166.883087
v -8.787400 44.159000 -166.581207
v -8.787400 64.410698 -54.429001
v -8.787400 54.140099 -173.915192
v -8.787400 34.645699 -178.571381
v -8.787400 35.055302 -173.728790
v -8.787400 33.161301 -175.662994
v -8.787400 41.651699 -58.299198
v -8.787400 43.152302 -53.561298
v 0.000000 69.332100 -115.826103
v 0.000000 70.807800 -54.666199
v 0.000000 62.547699 -168.374481
v 0.000000 57.275299 -176.107300
v 0.000000 34.779701 -182.082703
v 0.000000 24.937901 -178.391998
v 0.000000 26.168100 -168.198700
v 0.000000 34.604000 -160.641602
v 0.000000 35.306900 -60.817402
v 0.000000 27.749800 -52.908798
v 8.787400 64.410698 -54.429001
v 8.787400 43.152302 -53.561298
v 8.787400 41.651699 -58.299198
v 8.787400 44.159000 -166.581207
v 8.787400 35.055302 -173.728790
v 8.787400 33.161301 -175.662994
v 8.787400 34.645699 -178.571381
v 8.787400 58.839298 -166.883087
v 8.787400 54.140099 -173.915192
v 8.787400 64.862602 -116.180099
v -8.514100 23.469299 -54.424702
v -8.514100 21.892099 -50.516300
v -10.174500 32.379601 -50.516300
v -10.174500 32.201302 -54.424702
v -8.514100 23.707899 -46.791599
v -10.174500 32.201302 -46.791599
v -10.174500 62.436600 -50.516300
v -10.174500 62.258301 -54.424702
v -10.174500 62.258301 -46.791500
v 0.000000 76.122704 -54.424702
v -8.514100 72.229797 -54.424702
v -8.514100 73.464897 -50.516300
v 0.000000 77.770500 -50.516300
v -8.514100 73.286697 -46.791500
v 0.000000 77.592300 -46.791500
v 0.000000 19.340099 -54.424702
v 0.000000 16.932800 -50.516300
v 0.000000 19.691601 -46.791599
v 8.514100 23.469299 -54.424702
v 10.174500 32.201302 -54.424702
v 10.174500 32.379601 -50.516300
v 8.514100 21.892099 -50.516300
v 10.174500 32.201302 -46.791500
v 8.514100 23.707899 -46.791500
v 10.174500 62.258301 -54.424702
v 10.174500 62.436600 -50.516300
v 10.174500 62.258301 -46.791500
v 8.514100 73.464897 -50.516300
v 8.514100 72.229797 -54.424702
v 8.514100 73.286697 -46.791500
# 97 positions

vt 0.342000 0.850100
vt 0.341700 0.823400
vt 0.442400 0.822200
vt 0.442000 0.848900
vt 0.263300 0.851000
vt 0.290900 0.822300
vt 0.247600 0.851300
vt 0.020600 0.841900
vt 0.294900 0.820300
vt 0.914300 0.985000
vt 0.906400 0.896700
vt 0.975200 0.892000
vt 0.982100 0.979500
vt 0.440500 0.983900
vt 0.269700 0.981300
vt 0.333500 0.899000
vt 0.440500 0.898100
vt 0.202300 0.978000
vt 0.247000 0.889600
vt 0.129600 0.958000
vt 0.044900 0.891800
vt 0.442000 0.848900
vt 0.899300 0.845900
vt 0.901400 0.896800
vt 0.440500 0.898100
vt 0.903900 0.845800
vt 0.971300 0.844200
vt 0.333500 0.899000
vt 0.342000 0.878900
vt 0.262800 0.888900
vt 0.247000 0.889600
vt 0.897900 0.817200
vt 0.899300 0.845900
vt 0.904000 0.668500
vt 0.903900 0.655100
vt 0.971600 0.654700
vt 0.971700 0.668000
vt 0.901400 0.896800
vt 0.900700 0.981000
vt 0.914300 0.985000
vt 0.900700 0.981000
vt 0.901400 0.896800
vt 0.971300 0.844200
vt 0.903900 0.845800
vt 0.970700 0.816600
vt 0.970400 0.830400
vt 0.903000 0.817200
vt 0.971400 0.768800
vt 0.903000 0.769300
vt 0.904500 0.681900
vt 0.971400 0.681400
vt 0.440100 0.688800
vt 0.441300 0.773600
vt 0.335400 0.774000
vt 0.271200 0.693400
vt 0.249900 0.784400
vt 0.204600 0.697400
vt 0.049900 0.784600
vt 0.133000 0.718000
vt 0.897600 0.769400
vt 0.897900 0.817200
vt 0.442400 0.822200
vt 0.441300 0.773600
vt 0.903000 0.817200
vt 0.970700 0.816600
vt 0.344100 0.793800
vt 0.335400 0.774000
vt 0.265600 0.784900
vt 0.249900 0.784400
vt 0.971400 0.681400
vt 0.904500 0.681900
vt 0.894100 0.686300
vt 0.897600 0.769400
vt 0.894100 0.686300
vt 0.904500 0.681900
vt 0.897600 0.769400
vt 0.850400 0.325300
vt 0.853700 0.097600
vt 0.919400 0.093200
vt 0.865100 0.599500
vt 0.872400 0.063700
vt 0.958000 0.036600
vt 0.957700 0.058400
vt 0.965500 0.049100
vt 0.965500 0.575900
vt 0.960300 0.597500
vt 0.814400 0.329200
vt 0.817100 0.598600
vt 0.812100 0.097300
vt 0.811700 0.057500
vt 0.855400 0.059900
vt 0.061300 0.671100
vt 0.015600 0.669400
vt 0.017500 0.567500
vt 0.064800 0.555800
vt 0.059800 0.721700
vt 0.009500 0.683600
vt 0.583600 0.058300
vt 0.529200 0.051100
vt 0.531400 0.038600
vt 0.583500 0.014900
vt 0.583600 0.110700
vt 0.518000 0.096200
vt 0.584100 0.565400
vt 0.532800 0.570000
vt 0.584200 0.615600
vt 0.519300 0.582400
vt 0.769200 0.596400
vt 0.676300 0.594300
vt 0.670800 0.573300
vt 0.706300 0.101500
vt 0.668200 0.068300
vt 0.660400 0.059400
vt 0.667500 0.047000
vt 0.770400 0.102500
vt 0.751500 0.071800
vt 0.781600 0.326200
vt 0.768100 0.060800
vt 0.111300 0.570300
vt 0.107000 0.672200
vt 0.112300 0.686700
vt 0.635700 0.038500
vt 0.637900 0.051000
vt 0.649500 0.085100
vt 0.635200 0.580800
vt 0.649000 0.582300
vt 0.428100 0.107500
vt 0.458300 0.109700
vt 0.459500 0.189600
vt 0.436400 0.180100
vt 0.487600 0.120200
vt 0.488200 0.187800
vt 0.462800 0.419700
vt 0.440100 0.426000
vt 0.491400 0.418000
vt 0.427900 0.568800
vt 0.434100 0.508500
vt 0.464100 0.504400
vt 0.459600 0.576700
vt 0.492400 0.504000
vt 0.488400 0.577600
vt 0.424100 0.045600
vt 0.458300 0.035700
vt 0.492400 0.046900
vt 0.279800 0.107100
vt 0.273600 0.180900
vt 0.250000 0.189500
vt 0.248700 0.107400
vt 0.227100 0.185100
vt 0.218900 0.115500
vt 0.277400 0.430000
vt 0.253700 0.426000
vt 0.231200 0.427200
vt 0.294200 0.578100
vt 0.261800 0.587200
vt 0.255000 0.513100
vt 0.285900 0.513400
vt 0.232200 0.589000
vt 0.226000 0.517000
vt 0.281900 0.040400
vt 0.246400 0.031300
vt 0.211700 0.043900
vt 0.440100 0.426000
vt 0.434100 0.508500
vt 0.360700 0.555300
vt 0.428100 0.107500
vt 0.285900 0.513400
vt 0.277400 0.430000
vt 0.273600 0.180900
vt 0.279800 0.107100
vt 0.428100 0.107500
vt 0.277400 0.430000
vt 0.353200 0.060900
vt 0.436400 0.180100
vt 0.440100 0.426000
vt 0.227100 0.185100
vt 0.231200 0.427200
vt 0.078600 0.114500
vt 0.218900 0.115500
vt 0.226000 0.517000
vt 0.156500 0.557200
vt 0.070500 0.432300
vt 0.085700 0.522900
vt 0.066100 0.184700
vt 0.148100 0.080200
vt 0.904000 0.668500
vt 0.904500 0.681900
vt 0.896600 0.668600
vt 0.903900 0.655100
# 189 texture coordinates

vn -0.000000 0.975895 0.218239
vn -0.000000 0.998556 0.053724
vn -0.000000 0.993910 0.110196
vn 0.013279 0.999055 0.041380
vn -0.454259 0.890054 0.038123
vn -0.000000 0.999938 0.011124
vn 0.454271 0.890047 0.038123
vn -1.000000 -0.000000 -0.000000
vn -0.987469 -0.157811 0.000070
vn -0.986895 -0.161314 0.003960
vn -0.987280 -0.158828 0.007204
vn -0.987469 -0.157811 -0.000454
vn -0.989714 -0.141200 0.023005
vn -0.990557 -0.127704 0.049891
vn -1.000000 -0.000000 -0.000000
vn -0.994245 -0.084459 0.065902
vn -1.000000 -0.000000 -0.000000
vn -0.000000 1.000000 0.000435
vn -0.000000 -0.999985 -0.005547
vn -0.005923 -0.999968 -0.005324
vn -0.004797 -0.999974 -0.005324
vn -0.000000 -0.999985 -0.005547
vn -0.987011 -0.160655 -0.000318
vn -0.987010 -0.160655 -0.000855
vn -0.352605 -0.000000 0.935772
vn -0.333014 -0.054205 0.941363
vn -0.987011 -0.160655 -0.000310
vn 0.997656 -0.016432 0.066425
vn -0.000000 1.000000 0.000438
vn 0.019704 0.999772 0.008229
vn -0.000000 -0.000000 1.000000
vn 1.000000 0.000000 0.000000
vn 0.987469 -0.157811 0.000070
vn 0.987469 -0.157811 -0.000454
vn 0.987281 -0.158822 0.007206
vn 0.986896 -0.161308 0.003959
vn 0.990557 -0.127700 0.049889
vn 0.989715 -0.141195 0.023004
vn 1.000000 -0.000000 -0.000000
vn 1.000000 -0.000000 -0.000000
vn 0.004797 -0.999974 -0.005324
vn 0.005923 -0.999968 -0.005324
vn 0.987010 -0.160655 -0.000855
vn 0.987011 -0.160655 -0.000318
vn 0.333014 -0.054205 0.941363
vn 0.352605 -0.000000 0.935772
vn 0.987011 -0.160655 -0.000310
vn -0.671052 0.740502 -0.036687
vn -0.920891 0.383267 -0.071180
vn -0.982610 -0.185381 0.010594
vn -0.991346 0.131271 0.000961
vn -0.655403 0.328554 -0.680073
vn -0.686754 0.060350 -0.724381
vn -0.947125 -0.204308 0.247410
vn -0.740709 -0.669436 0.056623
vn -0.669014 -0.743220 -0.006620
vn -0.970559 -0.229622 0.072726
vn -0.000000 0.997372 -0.072452
vn -0.000000 0.999709 -0.024122
vn 0.000000 0.980579 -0.196125
vn -0.000000 0.442667 -0.896686
vn -0.000000 0.070476 -0.997513
vn -0.000000 -0.849806 -0.527095
vn 0.000000 -0.878227 0.478244
vn -0.000000 -0.996398 0.084800
vn 0.000000 -0.997982 -0.063494
vn -0.000000 -0.722991 -0.690857
vn 0.993784 0.111323 0.000815
vn 0.970559 -0.229622 0.072726
vn 0.669014 -0.743220 -0.006620
vn 0.937617 -0.347104 0.019836
vn 0.913942 -0.258420 0.312936
vn 0.740709 -0.669436 0.056623
vn 0.831437 0.046130 -0.553701
vn 0.989239 0.143847 -0.026715
vn 0.655403 0.328554 -0.680073
vn 0.671052 0.740502 -0.036687
vn -0.760780 -0.601853 -0.242872
vn -0.834992 -0.549993 0.017192
vn -0.999163 -0.040918 -0.000000
vn -0.999083 -0.042767 0.001951
vn -0.741511 -0.603092 0.294009
vn -0.999072 -0.043031 -0.002060
vn -0.999184 0.040381 -0.000000
vn -0.999139 0.041445 -0.001891
vn -0.999182 0.040380 0.001933
vn -0.000000 0.921454 -0.388488
vn -0.792472 0.581561 -0.183780
vn -0.830824 0.551276 -0.076330
vn -0.000000 0.981966 -0.189055
vn -0.832965 0.552694 0.026442
vn -0.000000 0.998858 0.047787
vn -0.000000 -0.851451 -0.524434
vn -0.000000 -0.998941 0.046001
vn -0.000003 -0.803582 0.595194
vn 0.760780 -0.601853 -0.242872
vn 0.999083 -0.042767 0.001951
vn 0.999162 -0.040918 -0.000000
vn 0.834992 -0.549993 0.017192
vn 0.999072 -0.043031 -0.002060
vn 0.741511 -0.603095 0.294002
vn 0.999139 0.041445 -0.001891
vn 0.999184 0.040381 -0.000000
vn 0.999182 0.040380 0.001933
vn 0.125191 0.085157 -0.988471
vn -0.000000 -0.000002 -1.000000
vn -0.000004 -0.000002 1.000000
vn -0.000000 -0.680065 0.733152
# 108 normals

usemtl 02___Default
s 1
f 1/1/1 2/2/1 3/3/2 4/4/2
f 5/5/3 6/6/4 2/2/1 1/1/1
f 7/7/5 8/8/6 6/6/4 5/5/3
f 8/8/6 9/9/7 6/6/4
f 24/32/18 20/33/18 4/4/2 3/3/2
f 22/44/29 30/47/18 28/45/30
f 22/44/29 20/33/18 24/32/18 30/47/18
s 2
f 10/10/8 11/11/8 12/12/8 13/13/8
f 4/22/8 20/23/8 21/24/8 17/25/8
f 20/23/8 22/26/8 11/11/8 21/24/8
f 11/11/8 22/26/8 23/27/8 12/12/8
f 17/25/8 16/28/8 1/29/8 4/22/8
f 5/30/8 1/29/8 16/28/8 7/31/17
s 3
f 14/14/9 15/15/10 16/16/11 17/17/12
f 15/15/10 18/18/13 7/19/14 16/16/11
f 7/19/14 18/18/13 19/20/15 8/21/16
f 21/38/23 27/39/24 14/14/9 17/17/12
s 4
f 25/34/19 10/35/20 13/36/21 26/37/22
f 34/70/41 33/71/42 25/34/19 26/37/22
s 5
f 11/11/8 10/40/25 27/41/26 21/42/27
s 6
f 23/43/28 22/44/29 28/45/30 29/46/31
s 7
f 31/48/32 32/49/32 33/50/32 34/51/32
f 37/60/32 24/61/32 3/62/32 35/63/32
f 32/49/32 30/64/32 24/61/32 37/60/32
f 28/65/32 30/64/32 32/49/32 31/48/32
f 35/63/32 3/62/32 2/66/32 36/67/32
f 6/68/40 9/69/40 36/67/32 2/66/32
s 8
f 14/52/33 35/53/34 36/54/35 15/55/36
f 15/55/36 36/54/35 9/56/37 18/57/38
f 9/56/37 8/58/28 19/59/39 18/57/38
f 14/52/33 27/72/43 37/73/44 35/53/34
s 9
f 27/74/45 33/75/46 32/49/32 37/76/47
s 10
f 38/77/48 39/78/49 40/79/50 41/80/51
f 42/81/52 43/82/53 44/83/54 39/78/49
f 43/82/53 45/84/55 44/83/54
f 39/78/49 44/83/54 40/79/50
f 41/80/51 40/79/50 46/85/56 47/86/57
f 48/87/58 38/77/48 41/80/51 49/88/59
f 50/89/60 39/78/49 38/77/48 48/87/58
f 51/90/61 42/91/52 39/78/49 50/89/60
f 52/92/62 43/93/53 42/94/52 51/95/61
f 52/92/62 53/96/63 45/97/55 43/93/53
f 54/98/64 44/99/54 45/100/55 53/101/63
f 55/102/65 40/103/50 44/99/54 54/98/64
f 55/102/65 56/104/66 46/105/56 40/103/50
f 56/104/66 57/106/67 47/107/57 46/105/56
f 58/108/68 59/109/69 60/110/70 61/111/71
f 62/112/72 63/113/73 64/114/74 65/115/75
f 64/114/74 66/116/76 65/115/75
f 65/115/75 58/108/68 61/111/71 62/112/72
f 58/108/68 65/115/75 67/117/77
f 58/108/68 67/117/77 48/87/58 49/88/59
f 67/117/77 65/115/75 50/89/60 48/87/58
f 65/115/75 66/118/76 51/90/61 50/89/60
f 66/119/76 64/120/74 52/92/62 51/95/61
f 52/92/62 64/120/74 63/121/73 53/96/63
f 63/122/73 62/123/72 54/98/64 53/101/63
f 62/123/72 61/124/71 55/102/65 54/98/64
f 55/102/65 61/124/71 60/125/70 56/104/66
f 56/104/66 60/125/70 59/126/69 57/106/67
s 11
f 68/127/78 69/128/79 70/129/80 71/130/81
f 70/129/80 69/128/79 72/131/82 73/132/83
f 70/129/80 74/133/84 75/134/85 71/130/81
f 70/129/80 73/132/83 76/135/86 74/133/84
f 77/136/87 78/137/88 79/138/89 80/139/90
f 79/138/89 81/140/91 82/141/92 80/139/90
f 78/137/88 75/134/85 74/133/84 79/138/89
f 74/133/84 76/135/86 81/140/91 79/138/89
f 83/142/93 84/143/94 69/128/79 68/127/78
f 69/128/79 84/143/94 85/144/95 72/131/82
f 86/145/96 87/146/97 88/147/98 89/148/99
f 88/147/98 90/149/100 91/150/101 89/148/99
f 92/151/102 93/152/103 88/147/98 87/146/97
f 88/147/98 93/152/103 94/153/104 90/149/100
f 77/154/87 80/155/90 95/156/105 96/157/105
f 95/156/105 80/155/90 82/158/92 97/159/105
f 96/157/105 95/156/105 93/152/103 92/151/102
f 93/152/103 95/156/105 97/159/105 94/153/104
f 83/160/93 86/145/96 89/148/99 84/161/94
f 89/148/99 91/150/101 85/162/95 84/161/94
f 87/169/105 86/170/105 68/171/105 92/172/105
f 86/170/105 83/173/105 68/171/105
f 71/174/105 75/175/105 68/171/105
s 12
f 75/163/106 78/164/106 77/165/106 68/166/106
f 77/165/106 96/167/106 92/168/106 68/166/106
f 90/176/107 94/177/107 72/178/107 91/179/107
f 94/177/107 97/180/106 82/181/106 76/182/106
f 82/181/106 81/183/106 76/182/106
f 73/184/107 72/178/107 94/177/107 76/182/106
f 85/185/107 91/179/107 72/178/107
s 13
f 25/186/108 33/187/108 27/188/108 10/189/108

# 91 faces
